<mxfile host="65bd71144e">
    <diagram id="i0bqvcRtrR0I4ZqiqYnq" name="Page-1">
        <mxGraphModel dx="759" dy="1187" grid="1" gridSize="10" guides="1" tooltips="1" connect="1" arrows="1" fold="1" page="1" pageScale="1" pageWidth="850" pageHeight="1100" math="0" shadow="0">
            <root>
                <mxCell id="0"/>
                <mxCell id="1" parent="0"/>
                <mxCell id="2" value="Start" style="ellipse;shape=doubleEllipse;whiteSpace=wrap;html=1;aspect=fixed;fillColor=#000000;strokeColor=#FFFFFF;fillStyle=solid;gradientColor=none;fontColor=#FFFFFF;labelBackgroundColor=#000000;" parent="1" vertex="1">
                    <mxGeometry x="40" y="80" width="80" height="80" as="geometry"/>
                </mxCell>
                <mxCell id="3" value="State0&lt;br&gt;//update time" style="ellipse;whiteSpace=wrap;html=1;aspect=fixed;fillColor=#000000;strokeColor=#FFFFFF;fillStyle=solid;gradientColor=none;fontColor=#FFFFFF;labelBackgroundColor=#000000;" parent="1" vertex="1">
                    <mxGeometry x="160" y="200" width="80" height="80" as="geometry"/>
                </mxCell>
                <mxCell id="4" value="State1&lt;br&gt;//execut" style="ellipse;whiteSpace=wrap;html=1;aspect=fixed;fillColor=#000000;strokeColor=#FFFFFF;fillStyle=solid;gradientColor=none;fontColor=#FFFFFF;labelBackgroundColor=#000000;" parent="1" vertex="1">
                    <mxGeometry x="400" y="200" width="80" height="80" as="geometry"/>
                </mxCell>
                <mxCell id="6" value="" style="endArrow=classic;html=1;exitX=1;exitY=1;exitDx=0;exitDy=0;entryX=0;entryY=0;entryDx=0;entryDy=0;fillColor=#b1ddf0;strokeColor=#10739e;" parent="1" source="2" target="3" edge="1">
                    <mxGeometry width="50" height="50" relative="1" as="geometry">
                        <mxPoint x="470" y="250" as="sourcePoint"/>
                        <mxPoint x="520" y="200" as="targetPoint"/>
                    </mxGeometry>
                </mxCell>
                <mxCell id="7" value="auto:&amp;nbsp;&lt;br&gt;- reset timing variables" style="endArrow=classic;html=1;exitX=0;exitY=1;exitDx=0;exitDy=0;entryX=1;entryY=1;entryDx=0;entryDy=0;fontColor=#FFFFFF;labelBackgroundColor=none;fillColor=#b1ddf0;strokeColor=#10739e;spacingLeft=1;" parent="1" source="4" target="3" edge="1">
                    <mxGeometry y="22" width="50" height="50" relative="1" as="geometry">
                        <mxPoint x="470" y="250" as="sourcePoint"/>
                        <mxPoint x="520" y="200" as="targetPoint"/>
                        <mxPoint as="offset"/>
                    </mxGeometry>
                </mxCell>
                <mxCell id="8" value="if duration passed" style="endArrow=classic;html=1;exitX=1;exitY=0;exitDx=0;exitDy=0;entryX=0;entryY=0;entryDx=0;entryDy=0;fontColor=#FFFFFF;labelBackgroundColor=none;fillColor=#b1ddf0;strokeColor=#10739e;spacingLeft=1;" parent="1" source="3" target="4" edge="1">
                    <mxGeometry y="12" width="50" height="50" relative="1" as="geometry">
                        <mxPoint x="470" y="250" as="sourcePoint"/>
                        <mxPoint x="520" y="200" as="targetPoint"/>
                        <mxPoint as="offset"/>
                    </mxGeometry>
                </mxCell>
                <mxCell id="10" value="" style="endArrow=classic;html=1;exitX=0.018;exitY=0.671;exitDx=0;exitDy=0;fillColor=#b1ddf0;strokeColor=#10739e;entryX=0.5;entryY=1;entryDx=0;entryDy=0;curved=1;exitPerimeter=0;" edge="1" parent="1" source="3" target="3">
                    <mxGeometry width="50" height="50" relative="1" as="geometry">
                        <mxPoint x="118.2842712474619" y="158.2842712474619" as="sourcePoint"/>
                        <mxPoint x="230" y="210" as="targetPoint"/>
                        <Array as="points">
                            <mxPoint x="140" y="280"/>
                            <mxPoint x="180" y="310"/>
                        </Array>
                    </mxGeometry>
                </mxCell>
            </root>
        </mxGraphModel>
    </diagram>
</mxfile>